<?xml version="1.0" encoding="UTF-8" standalone="no"?><svg xmlns="http://www.w3.org/2000/svg" xmlns:xlink="http://www.w3.org/1999/xlink" contentScriptType="application/ecmascript" contentStyleType="text/css" height="702px" preserveAspectRatio="none" style="width:944px;height:702px;" version="1.1" viewBox="0 0 944 702" width="944px" zoomAndPan="magnify"><defs><filter height="300%" id="ffgsnfybmgtn0" width="300%" x="-1" y="-1"><feGaussianBlur result="blurOut" stdDeviation="2.0"/><feColorMatrix in="blurOut" result="blurOut2" type="matrix" values="0 0 0 0 0 0 0 0 0 0 0 0 0 0 0 0 0 0 .4 0"/><feOffset dx="4.0" dy="4.0" in="blurOut2" result="blurOut3"/><feBlend in="SourceGraphic" in2="blurOut3" mode="normal"/></filter></defs><g><!--MD5=[10c50c2e3150e634e5ce95ceba89a534]
class Ant--><rect codeLine="3" fill="#FEFECE" filter="url(#ffgsnfybmgtn0)" height="60.8047" id="Ant" style="stroke:#A80036;stroke-width:1.5;" width="53" x="546.5" y="365"/><ellipse cx="561.5" cy="381" fill="#A9DCDF" rx="11" ry="11" style="stroke:#A80036;stroke-width:1.0;"/><path d="M561.6094,376.2969 L560.4531,381.625 L562.7813,381.625 L561.6094,376.2969 Z M560.125,373.75 L563.1094,373.75 L566.4688,386.75 L564.0156,386.75 L563.25,383.75 L559.9688,383.75 L559.2188,386.75 L556.7813,386.75 L560.125,373.75 Z " fill="#000000"/><text fill="#000000" font-family="sans-serif" font-size="12" font-style="italic" lengthAdjust="spacing" textLength="21" x="575.5" y="385.1543">Ant</text><line style="stroke:#A80036;stroke-width:1.5;" x1="547.5" x2="598.5" y1="397" y2="397"/><text fill="#000000" font-family="sans-serif" font-size="11" lengthAdjust="spacing" textLength="37" x="552.5" y="411.2104">colony</text><line style="stroke:#A80036;stroke-width:1.5;" x1="547.5" x2="598.5" y1="417.8047" y2="417.8047"/><!--MD5=[e437689f509b2941bd7ef5d5d6c3ce24]
class Occupant--><rect codeLine="46" fill="#FEFECE" filter="url(#ffgsnfybmgtn0)" height="73.6094" id="Occupant" style="stroke:#A80036;stroke-width:1.5;" width="91" x="661.5" y="13"/><ellipse cx="676.5" cy="29" fill="#ADD1B2" rx="11" ry="11" style="stroke:#A80036;stroke-width:1.0;"/><path d="M678.9688,34.875 Q678.3906,35.1875 677.75,35.3438 Q677.1094,35.5 676.4063,35.5 Q673.9063,35.5 672.5781,33.8281 Q671.2656,32.1563 671.2656,29 Q671.2656,25.8438 672.5781,24.1719 Q673.9063,22.5 676.4063,22.5 Q677.1094,22.5 677.75,22.6563 Q678.4063,22.8125 678.9688,23.125 L678.9688,25.9219 Q678.3438,25.3594 677.75,25.0938 Q677.1563,24.8125 676.5313,24.8125 Q675.1875,24.8125 674.5,25.875 Q673.8125,26.9375 673.8125,29 Q673.8125,31.0781 674.5,32.1406 Q675.1875,33.1875 676.5313,33.1875 Q677.1563,33.1875 677.75,32.9219 Q678.3438,32.6563 678.9688,32.0781 L678.9688,34.875 Z " fill="#000000"/><text fill="#000000" font-family="sans-serif" font-size="12" lengthAdjust="spacing" textLength="59" x="690.5" y="33.1543">Occupant</text><line style="stroke:#A80036;stroke-width:1.5;" x1="662.5" x2="751.5" y1="45" y2="45"/><text fill="#000000" font-family="sans-serif" font-size="11" lengthAdjust="spacing" textLength="7" x="667.5" y="59.2104">x</text><text fill="#000000" font-family="sans-serif" font-size="11" lengthAdjust="spacing" textLength="7" x="667.5" y="72.0151">y</text><line style="stroke:#A80036;stroke-width:1.5;" x1="662.5" x2="751.5" y1="78.6094" y2="78.6094"/><!--MD5=[e17fa84612cd31b11e01736fde1f3a71]
class Colony--><rect codeLine="8" fill="#FEFECE" filter="url(#ffgsnfybmgtn0)" height="73.6094" id="Colony" style="stroke:#A80036;stroke-width:1.5;" width="119" x="530.5" y="170"/><ellipse cx="566.65" cy="186" fill="#ADD1B2" rx="11" ry="11" style="stroke:#A80036;stroke-width:1.0;"/><path d="M569.1188,191.875 Q568.5406,192.1875 567.9,192.3438 Q567.2594,192.5 566.5563,192.5 Q564.0563,192.5 562.7281,190.8281 Q561.4156,189.1563 561.4156,186 Q561.4156,182.8438 562.7281,181.1719 Q564.0563,179.5 566.5563,179.5 Q567.2594,179.5 567.9,179.6563 Q568.5563,179.8125 569.1188,180.125 L569.1188,182.9219 Q568.4938,182.3594 567.9,182.0938 Q567.3063,181.8125 566.6813,181.8125 Q565.3375,181.8125 564.65,182.875 Q563.9625,183.9375 563.9625,186 Q563.9625,188.0781 564.65,189.1406 Q565.3375,190.1875 566.6813,190.1875 Q567.3063,190.1875 567.9,189.9219 Q568.4938,189.6563 569.1188,189.0781 L569.1188,191.875 Z " fill="#000000"/><text fill="#000000" font-family="sans-serif" font-size="12" lengthAdjust="spacing" textLength="40" x="585.35" y="190.1543">Colony</text><line style="stroke:#A80036;stroke-width:1.5;" x1="531.5" x2="648.5" y1="202" y2="202"/><text fill="#000000" font-family="sans-serif" font-size="11" lengthAdjust="spacing" textLength="107" x="536.5" y="216.2104">pheromoneDeposit</text><text fill="#000000" font-family="sans-serif" font-size="11" lengthAdjust="spacing" textLength="88" x="536.5" y="229.0151">foodWithdrawal</text><line style="stroke:#A80036;stroke-width:1.5;" x1="531.5" x2="648.5" y1="235.6094" y2="235.6094"/><!--MD5=[292033ffe4750640675b59034298e578]
class Display--><rect codeLine="14" fill="#FEFECE" filter="url(#ffgsnfybmgtn0)" height="48" id="Display" style="stroke:#A80036;stroke-width:1.5;" width="75" x="63.5" y="183"/><ellipse cx="78.5" cy="199" fill="#ADD1B2" rx="11" ry="11" style="stroke:#A80036;stroke-width:1.0;"/><path d="M80.9688,204.875 Q80.3906,205.1875 79.75,205.3438 Q79.1094,205.5 78.4063,205.5 Q75.9063,205.5 74.5781,203.8281 Q73.2656,202.1563 73.2656,199 Q73.2656,195.8438 74.5781,194.1719 Q75.9063,192.5 78.4063,192.5 Q79.1094,192.5 79.75,192.6563 Q80.4063,192.8125 80.9688,193.125 L80.9688,195.9219 Q80.3438,195.3594 79.75,195.0938 Q79.1563,194.8125 78.5313,194.8125 Q77.1875,194.8125 76.5,195.875 Q75.8125,196.9375 75.8125,199 Q75.8125,201.0781 76.5,202.1406 Q77.1875,203.1875 78.5313,203.1875 Q79.1563,203.1875 79.75,202.9219 Q80.3438,202.6563 80.9688,202.0781 L80.9688,204.875 Z " fill="#000000"/><text fill="#000000" font-family="sans-serif" font-size="12" lengthAdjust="spacing" textLength="43" x="92.5" y="203.1543">Display</text><line style="stroke:#A80036;stroke-width:1.5;" x1="64.5" x2="137.5" y1="215" y2="215"/><line style="stroke:#A80036;stroke-width:1.5;" x1="64.5" x2="137.5" y1="223" y2="223"/><!--MD5=[5b4460e97222b45c9cf25eacd4639dbc]
class Food--><rect codeLine="19" fill="#FEFECE" filter="url(#ffgsnfybmgtn0)" height="60.8047" id="Food" style="stroke:#A80036;stroke-width:1.5;" width="61" x="869.5" y="628"/><ellipse cx="884.5" cy="644" fill="#ADD1B2" rx="11" ry="11" style="stroke:#A80036;stroke-width:1.0;"/><path d="M886.9688,649.875 Q886.3906,650.1875 885.75,650.3438 Q885.1094,650.5 884.4063,650.5 Q881.9063,650.5 880.5781,648.8281 Q879.2656,647.1563 879.2656,644 Q879.2656,640.8438 880.5781,639.1719 Q881.9063,637.5 884.4063,637.5 Q885.1094,637.5 885.75,637.6563 Q886.4063,637.8125 886.9688,638.125 L886.9688,640.9219 Q886.3438,640.3594 885.75,640.0938 Q885.1563,639.8125 884.5313,639.8125 Q883.1875,639.8125 882.5,640.875 Q881.8125,641.9375 881.8125,644 Q881.8125,646.0781 882.5,647.1406 Q883.1875,648.1875 884.5313,648.1875 Q885.1563,648.1875 885.75,647.9219 Q886.3438,647.6563 886.9688,647.0781 L886.9688,649.875 Z " fill="#000000"/><text fill="#000000" font-family="sans-serif" font-size="12" lengthAdjust="spacing" textLength="29" x="898.5" y="648.1543">Food</text><line style="stroke:#A80036;stroke-width:1.5;" x1="870.5" x2="929.5" y1="660" y2="660"/><text fill="#000000" font-family="sans-serif" font-size="11" lengthAdjust="spacing" textLength="46" x="875.5" y="674.2104">quantity</text><line style="stroke:#A80036;stroke-width:1.5;" x1="870.5" x2="929.5" y1="680.8047" y2="680.8047"/><!--MD5=[82d9c97a467af7c0b2c072e754b85475]
class GameController--><rect codeLine="24" fill="#FEFECE" filter="url(#ffgsnfybmgtn0)" height="86.4141" id="GameController" style="stroke:#A80036;stroke-width:1.5;" width="125" x="191.5" y="7"/><ellipse cx="206.5" cy="23" fill="#ADD1B2" rx="11" ry="11" style="stroke:#A80036;stroke-width:1.0;"/><path d="M208.9688,28.875 Q208.3906,29.1875 207.75,29.3438 Q207.1094,29.5 206.4063,29.5 Q203.9063,29.5 202.5781,27.8281 Q201.2656,26.1563 201.2656,23 Q201.2656,19.8438 202.5781,18.1719 Q203.9063,16.5 206.4063,16.5 Q207.1094,16.5 207.75,16.6563 Q208.4063,16.8125 208.9688,17.125 L208.9688,19.9219 Q208.3438,19.3594 207.75,19.0938 Q207.1563,18.8125 206.5313,18.8125 Q205.1875,18.8125 204.5,19.875 Q203.8125,20.9375 203.8125,23 Q203.8125,25.0781 204.5,26.1406 Q205.1875,27.1875 206.5313,27.1875 Q207.1563,27.1875 207.75,26.9219 Q208.3438,26.6563 208.9688,26.0781 L208.9688,28.875 Z " fill="#000000"/><text fill="#000000" font-family="sans-serif" font-size="12" lengthAdjust="spacing" textLength="93" x="220.5" y="27.1543">GameController</text><line style="stroke:#A80036;stroke-width:1.5;" x1="192.5" x2="315.5" y1="39" y2="39"/><text fill="#000000" font-family="sans-serif" font-size="11" lengthAdjust="spacing" textLength="40" x="197.5" y="53.2104">graphe</text><text fill="#000000" font-family="sans-serif" font-size="11" lengthAdjust="spacing" textLength="23" x="197.5" y="66.0151">rdm</text><text fill="#000000" font-family="sans-serif" font-size="11" lengthAdjust="spacing" textLength="105" x="197.5" y="78.8198">evaporationParam</text><line style="stroke:#A80036;stroke-width:1.5;" x1="192.5" x2="315.5" y1="85.4141" y2="85.4141"/><!--MD5=[af0a8305a588b84ac555c67f9d0f0fdf]
class Graphe--><rect codeLine="31" fill="#FEFECE" filter="url(#ffgsnfybmgtn0)" height="86.4141" id="Graphe" style="stroke:#A80036;stroke-width:1.5;" width="99" x="447.5" y="7"/><ellipse cx="472.85" cy="23" fill="#ADD1B2" rx="11" ry="11" style="stroke:#A80036;stroke-width:1.0;"/><path d="M475.3188,28.875 Q474.7406,29.1875 474.1,29.3438 Q473.4594,29.5 472.7563,29.5 Q470.2563,29.5 468.9281,27.8281 Q467.6156,26.1563 467.6156,23 Q467.6156,19.8438 468.9281,18.1719 Q470.2563,16.5 472.7563,16.5 Q473.4594,16.5 474.1,16.6563 Q474.7563,16.8125 475.3188,17.125 L475.3188,19.9219 Q474.6938,19.3594 474.1,19.0938 Q473.5063,18.8125 472.8813,18.8125 Q471.5375,18.8125 470.85,19.875 Q470.1625,20.9375 470.1625,23 Q470.1625,25.0781 470.85,26.1406 Q471.5375,27.1875 472.8813,27.1875 Q473.5063,27.1875 474.1,26.9219 Q474.6938,26.6563 475.3188,26.0781 L475.3188,28.875 Z " fill="#000000"/><text fill="#000000" font-family="sans-serif" font-size="12" lengthAdjust="spacing" textLength="44" x="489.15" y="27.1543">Graphe</text><line style="stroke:#A80036;stroke-width:1.5;" x1="448.5" x2="545.5" y1="39" y2="39"/><text fill="#000000" font-family="sans-serif" font-size="11" lengthAdjust="spacing" textLength="42" x="453.5" y="53.2104">tabGrid</text><text fill="#000000" font-family="sans-serif" font-size="11" lengthAdjust="spacing" textLength="41" x="453.5" y="66.0151">listAnts</text><text fill="#000000" font-family="sans-serif" font-size="11" lengthAdjust="spacing" textLength="87" x="453.5" y="78.8198">listPheromones</text><line style="stroke:#A80036;stroke-width:1.5;" x1="448.5" x2="545.5" y1="85.4141" y2="85.4141"/><!--MD5=[84718776d214be480e4c259efcb737fc]
class Main--><rect codeLine="38" fill="#FEFECE" filter="url(#ffgsnfybmgtn0)" height="48" id="Main" style="stroke:#A80036;stroke-width:1.5;" width="60" x="7" y="26"/><ellipse cx="22" cy="42" fill="#ADD1B2" rx="11" ry="11" style="stroke:#A80036;stroke-width:1.0;"/><path d="M24.4688,47.875 Q23.8906,48.1875 23.25,48.3438 Q22.6094,48.5 21.9063,48.5 Q19.4063,48.5 18.0781,46.8281 Q16.7656,45.1563 16.7656,42 Q16.7656,38.8438 18.0781,37.1719 Q19.4063,35.5 21.9063,35.5 Q22.6094,35.5 23.25,35.6563 Q23.9063,35.8125 24.4688,36.125 L24.4688,38.9219 Q23.8438,38.3594 23.25,38.0938 Q22.6563,37.8125 22.0313,37.8125 Q20.6875,37.8125 20,38.875 Q19.3125,39.9375 19.3125,42 Q19.3125,44.0781 20,45.1406 Q20.6875,46.1875 22.0313,46.1875 Q22.6563,46.1875 23.25,45.9219 Q23.8438,45.6563 24.4688,45.0781 L24.4688,47.875 Z " fill="#000000"/><text fill="#000000" font-family="sans-serif" font-size="12" lengthAdjust="spacing" textLength="28" x="36" y="46.1543">Main</text><line style="stroke:#A80036;stroke-width:1.5;" x1="8" x2="66" y1="58" y2="58"/><line style="stroke:#A80036;stroke-width:1.5;" x1="8" x2="66" y1="66" y2="66"/><!--MD5=[23868d926b4091f874f65c50fc3e197e]
class Obstacle--><rect codeLine="42" fill="#FEFECE" filter="url(#ffgsnfybmgtn0)" height="48" id="Obstacle" style="stroke:#A80036;stroke-width:1.5;" width="84" x="685" y="183"/><ellipse cx="700" cy="199" fill="#ADD1B2" rx="11" ry="11" style="stroke:#A80036;stroke-width:1.0;"/><path d="M702.4688,204.875 Q701.8906,205.1875 701.25,205.3438 Q700.6094,205.5 699.9063,205.5 Q697.4063,205.5 696.0781,203.8281 Q694.7656,202.1563 694.7656,199 Q694.7656,195.8438 696.0781,194.1719 Q697.4063,192.5 699.9063,192.5 Q700.6094,192.5 701.25,192.6563 Q701.9063,192.8125 702.4688,193.125 L702.4688,195.9219 Q701.8438,195.3594 701.25,195.0938 Q700.6563,194.8125 700.0313,194.8125 Q698.6875,194.8125 698,195.875 Q697.3125,196.9375 697.3125,199 Q697.3125,201.0781 698,202.1406 Q698.6875,203.1875 700.0313,203.1875 Q700.6563,203.1875 701.25,202.9219 Q701.8438,202.6563 702.4688,202.0781 L702.4688,204.875 Z " fill="#000000"/><text fill="#000000" font-family="sans-serif" font-size="12" lengthAdjust="spacing" textLength="52" x="714" y="203.1543">Obstacle</text><line style="stroke:#A80036;stroke-width:1.5;" x1="686" x2="768" y1="215" y2="215"/><line style="stroke:#A80036;stroke-width:1.5;" x1="686" x2="768" y1="223" y2="223"/><!--MD5=[03a8d271f23acb716d928fdb53328ac5]
class Pheromone--><rect codeLine="52" fill="#FEFECE" filter="url(#ffgsnfybmgtn0)" height="60.8047" id="Pheromone" style="stroke:#A80036;stroke-width:1.5;" width="100" x="765" y="274"/><ellipse cx="780" cy="290" fill="#ADD1B2" rx="11" ry="11" style="stroke:#A80036;stroke-width:1.0;"/><path d="M782.4688,295.875 Q781.8906,296.1875 781.25,296.3438 Q780.6094,296.5 779.9063,296.5 Q777.4063,296.5 776.0781,294.8281 Q774.7656,293.1563 774.7656,290 Q774.7656,286.8438 776.0781,285.1719 Q777.4063,283.5 779.9063,283.5 Q780.6094,283.5 781.25,283.6563 Q781.9063,283.8125 782.4688,284.125 L782.4688,286.9219 Q781.8438,286.3594 781.25,286.0938 Q780.6563,285.8125 780.0313,285.8125 Q778.6875,285.8125 778,286.875 Q777.3125,287.9375 777.3125,290 Q777.3125,292.0781 778,293.1406 Q778.6875,294.1875 780.0313,294.1875 Q780.6563,294.1875 781.25,293.9219 Q781.8438,293.6563 782.4688,293.0781 L782.4688,295.875 Z " fill="#000000"/><text fill="#000000" font-family="sans-serif" font-size="12" lengthAdjust="spacing" textLength="68" x="794" y="294.1543">Pheromone</text><line style="stroke:#A80036;stroke-width:1.5;" x1="766" x2="864" y1="306" y2="306"/><text fill="#000000" font-family="sans-serif" font-size="11" lengthAdjust="spacing" textLength="46" x="771" y="320.2104">quantity</text><line style="stroke:#A80036;stroke-width:1.5;" x1="766" x2="864" y1="326.8047" y2="326.8047"/><!--MD5=[b5524c1f1cf4f7aeecdc9b5af5b05d87]
class Queen--><rect codeLine="57" fill="#FEFECE" filter="url(#ffgsnfybmgtn0)" height="48" id="Queen" style="stroke:#A80036;stroke-width:1.5;" width="71" x="435.5" y="634.5"/><ellipse cx="450.5" cy="650.5" fill="#ADD1B2" rx="11" ry="11" style="stroke:#A80036;stroke-width:1.0;"/><path d="M452.9688,656.375 Q452.3906,656.6875 451.75,656.8438 Q451.1094,657 450.4063,657 Q447.9063,657 446.5781,655.3281 Q445.2656,653.6563 445.2656,650.5 Q445.2656,647.3438 446.5781,645.6719 Q447.9063,644 450.4063,644 Q451.1094,644 451.75,644.1563 Q452.4063,644.3125 452.9688,644.625 L452.9688,647.4219 Q452.3438,646.8594 451.75,646.5938 Q451.1563,646.3125 450.5313,646.3125 Q449.1875,646.3125 448.5,647.375 Q447.8125,648.4375 447.8125,650.5 Q447.8125,652.5781 448.5,653.6406 Q449.1875,654.6875 450.5313,654.6875 Q451.1563,654.6875 451.75,654.4219 Q452.3438,654.1563 452.9688,653.5781 L452.9688,656.375 Z " fill="#000000"/><text fill="#000000" font-family="sans-serif" font-size="12" lengthAdjust="spacing" textLength="39" x="464.5" y="654.6543">Queen</text><line style="stroke:#A80036;stroke-width:1.5;" x1="436.5" x2="505.5" y1="666.5" y2="666.5"/><line style="stroke:#A80036;stroke-width:1.5;" x1="436.5" x2="505.5" y1="674.5" y2="674.5"/><!--MD5=[2c1783fdd7bf7ecfc31caec97f5125cf]
class Sauvegarde--><rect codeLine="61" fill="#FEFECE" filter="url(#ffgsnfybmgtn0)" height="48" id="Sauvegarde" style="stroke:#A80036;stroke-width:1.5;" width="104" x="202" y="183"/><ellipse cx="217" cy="199" fill="#ADD1B2" rx="11" ry="11" style="stroke:#A80036;stroke-width:1.0;"/><path d="M219.4688,204.875 Q218.8906,205.1875 218.25,205.3438 Q217.6094,205.5 216.9063,205.5 Q214.4063,205.5 213.0781,203.8281 Q211.7656,202.1563 211.7656,199 Q211.7656,195.8438 213.0781,194.1719 Q214.4063,192.5 216.9063,192.5 Q217.6094,192.5 218.25,192.6563 Q218.9063,192.8125 219.4688,193.125 L219.4688,195.9219 Q218.8438,195.3594 218.25,195.0938 Q217.6563,194.8125 217.0313,194.8125 Q215.6875,194.8125 215,195.875 Q214.3125,196.9375 214.3125,199 Q214.3125,201.0781 215,202.1406 Q215.6875,203.1875 217.0313,203.1875 Q217.6563,203.1875 218.25,202.9219 Q218.8438,202.6563 219.4688,202.0781 L219.4688,204.875 Z " fill="#000000"/><text fill="#000000" font-family="sans-serif" font-size="12" lengthAdjust="spacing" textLength="72" x="231" y="203.1543">Sauvegarde</text><line style="stroke:#A80036;stroke-width:1.5;" x1="203" x2="305" y1="215" y2="215"/><line style="stroke:#A80036;stroke-width:1.5;" x1="203" x2="305" y1="223" y2="223"/><!--MD5=[ab18ab109d20d07a46d8dcc7319a218d]
class Soldier--><rect codeLine="65" fill="#FEFECE" filter="url(#ffgsnfybmgtn0)" height="48" id="Soldier" style="stroke:#A80036;stroke-width:1.5;" width="73" x="440.5" y="503"/><ellipse cx="455.5" cy="519" fill="#ADD1B2" rx="11" ry="11" style="stroke:#A80036;stroke-width:1.0;"/><path d="M457.9688,524.875 Q457.3906,525.1875 456.75,525.3438 Q456.1094,525.5 455.4063,525.5 Q452.9063,525.5 451.5781,523.8281 Q450.2656,522.1563 450.2656,519 Q450.2656,515.8438 451.5781,514.1719 Q452.9063,512.5 455.4063,512.5 Q456.1094,512.5 456.75,512.6563 Q457.4063,512.8125 457.9688,513.125 L457.9688,515.9219 Q457.3438,515.3594 456.75,515.0938 Q456.1563,514.8125 455.5313,514.8125 Q454.1875,514.8125 453.5,515.875 Q452.8125,516.9375 452.8125,519 Q452.8125,521.0781 453.5,522.1406 Q454.1875,523.1875 455.5313,523.1875 Q456.1563,523.1875 456.75,522.9219 Q457.3438,522.6563 457.9688,522.0781 L457.9688,524.875 Z " fill="#000000"/><text fill="#000000" font-family="sans-serif" font-size="12" lengthAdjust="spacing" textLength="41" x="469.5" y="523.1543">Soldier</text><line style="stroke:#A80036;stroke-width:1.5;" x1="441.5" x2="512.5" y1="535" y2="535"/><line style="stroke:#A80036;stroke-width:1.5;" x1="441.5" x2="512.5" y1="543" y2="543"/><!--MD5=[7b5bd88a8a025decccf0c9eac4aaabe9]
class Worker--><rect codeLine="69" fill="#FEFECE" filter="url(#ffgsnfybmgtn0)" height="60.8047" id="Worker" style="stroke:#A80036;stroke-width:1.5;" width="75" x="620.5" y="628"/><ellipse cx="635.5" cy="644" fill="#ADD1B2" rx="11" ry="11" style="stroke:#A80036;stroke-width:1.0;"/><path d="M637.9688,649.875 Q637.3906,650.1875 636.75,650.3438 Q636.1094,650.5 635.4063,650.5 Q632.9063,650.5 631.5781,648.8281 Q630.2656,647.1563 630.2656,644 Q630.2656,640.8438 631.5781,639.1719 Q632.9063,637.5 635.4063,637.5 Q636.1094,637.5 636.75,637.6563 Q637.4063,637.8125 637.9688,638.125 L637.9688,640.9219 Q637.3438,640.3594 636.75,640.0938 Q636.1563,639.8125 635.5313,639.8125 Q634.1875,639.8125 633.5,640.875 Q632.8125,641.9375 632.8125,644 Q632.8125,646.0781 633.5,647.1406 Q634.1875,648.1875 635.5313,648.1875 Q636.1563,648.1875 636.75,647.9219 Q637.3438,647.6563 637.9688,647.0781 L637.9688,649.875 Z " fill="#000000"/><text fill="#000000" font-family="sans-serif" font-size="12" lengthAdjust="spacing" textLength="43" x="649.5" y="648.1543">Worker</text><line style="stroke:#A80036;stroke-width:1.5;" x1="621.5" x2="694.5" y1="660" y2="660"/><text fill="#000000" font-family="sans-serif" font-size="11" lengthAdjust="spacing" textLength="40" x="626.5" y="674.2104">carried</text><line style="stroke:#A80036;stroke-width:1.5;" x1="621.5" x2="694.5" y1="680.8047" y2="680.8047"/><!--MD5=[f5a78ffb6213749a646b71e996e47ce9]
reverse link Occupant to Ant--><path d="M642.45,71.53 C597.34,89.65 540.46,120.94 513,170 C477.24,233.9 522.34,320.04 551.63,364.76 " fill="none" id="Occupant-backto-Ant" style="stroke:#A80036;stroke-width:1.0;"/><polygon fill="none" points="640.06,64.95,661.25,64.45,645,78.05,640.06,64.95" style="stroke:#A80036;stroke-width:1.0;"/><!--MD5=[99e6c3c53adf2ed663bee9469c9a690a]
reverse link Occupant to Colony--><path d="M667.48,103.35 C650.97,125.23 632.19,150.1 617.26,169.89 " fill="none" id="Occupant-backto-Colony" style="stroke:#A80036;stroke-width:1.0;"/><polygon fill="none" points="661.93,99.09,679.57,87.34,673.11,107.52,661.93,99.09" style="stroke:#A80036;stroke-width:1.0;"/><!--MD5=[8946f555192dfcebc5704d50de6d9592]
reverse link Occupant to Food--><path d="M771.5,73.88 C825.57,97.68 894,140.7 894,206 C894,206 894,206 894,528 C894,562.32 896.13,601.71 897.85,627.94 " fill="none" id="Occupant-backto-Food" style="stroke:#A80036;stroke-width:1.0;"/><polygon fill="none" points="768.55,80.24,752.75,66.12,773.9,67.3,768.55,80.24" style="stroke:#A80036;stroke-width:1.0;"/><!--MD5=[a9acbaa25ffda6a0f055490074614b6d]
reverse link Occupant to Obstacle--><path d="M714.26,107.27 C717.63,133.37 721.45,162.95 724.02,182.87 " fill="none" id="Occupant-backto-Obstacle" style="stroke:#A80036;stroke-width:1.0;"/><polygon fill="none" points="707.31,108.07,711.69,87.34,721.19,106.28,707.31,108.07" style="stroke:#A80036;stroke-width:1.0;"/><!--MD5=[e2e2eb349bf0416d8006e60339ea3200]
reverse link Occupant to Pheromone--><path d="M748.75,103.61 C762.73,123.46 777.23,146.85 787,170 C801.36,204.04 808.62,246.16 812.1,273.88 " fill="none" id="Occupant-backto-Pheromone" style="stroke:#A80036;stroke-width:1.0;"/><polygon fill="none" points="742.88,107.45,736.72,87.18,754.18,99.18,742.88,107.45" style="stroke:#A80036;stroke-width:1.0;"/><!--MD5=[e328c16c177ae1fede888adf58d4460f]
reverse link Ant to Queen--><path d="M578.21,446.03 C580.36,489.02 577.63,551.5 551,598 C540.85,615.72 523.06,629.75 506.83,639.72 " fill="none" id="Ant-backto-Queen" style="stroke:#A80036;stroke-width:1.0;"/><polygon fill="none" points="571.22,446.53,576.79,426.08,585.19,445.53,571.22,446.53" style="stroke:#A80036;stroke-width:1.0;"/><!--MD5=[aa722b09dfa1cf5a63ede336d4349abe]
reverse link Ant to Soldier--><path d="M538.87,442.54 C523.71,462.99 506.54,486.15 494.14,502.88 " fill="none" id="Ant-backto-Soldier" style="stroke:#A80036;stroke-width:1.0;"/><polygon fill="none" points="533.44,438.11,550.98,426.21,544.69,446.45,533.44,438.11" style="stroke:#A80036;stroke-width:1.0;"/><!--MD5=[c8892067b2ec4d30e44d5d5d2177d5b0]
reverse link Ant to Worker--><path d="M594.68,444.72 C596.2,448.51 597.66,452.3 599,456 C620.78,515.96 640.35,588.1 650.56,627.75 " fill="none" id="Ant-backto-Worker" style="stroke:#A80036;stroke-width:1.0;"/><polygon fill="none" points="588.18,447.31,586.85,426.16,601.07,441.87,588.18,447.31" style="stroke:#A80036;stroke-width:1.0;"/><!--MD5=[21fe37a5920d9509267d1cefb1e97c38]
link Main to GameController--><path codeLine="74" d="M67.17,50 C99.08,50 150.34,50 191.11,50 " fill="none" id="Main-GameController" style="stroke:#A80036;stroke-width:1.0;"/><polygon fill="#000000" points="94.25,38.5664,85.2049,35.6275,85.2049,41.5053,94.25,38.5664" style="stroke:#000000;stroke-width:1.0;"/><text fill="#000000" font-family="sans-serif" font-size="13" lengthAdjust="spacing" textLength="75" x="98.25" y="43.0669">lance le jeu</text><!--MD5=[e7a7ee5366611f2db02e01a8f6945679]
link GameController to Graphe--><path codeLine="75" d="M316.58,50 C357.22,50 409.46,50 447.26,50 " fill="none" id="GameController-Graphe" style="stroke:#A80036;stroke-width:1.0;"/><polygon fill="#000000" points="364.5,38.5664,355.4549,35.6275,355.4549,41.5053,364.5,38.5664" style="stroke:#000000;stroke-width:1.0;"/><text fill="#000000" font-family="sans-serif" font-size="13" lengthAdjust="spacing" textLength="40" x="368.5" y="43.0669">utilise</text><!--MD5=[f82ffe883dd368be2ba4f8f9a9ca8b88]
link Graphe to Occupant--><path codeLine="76" d="M546.5,50 C581.3,50 627.52,50 661.42,50 " fill="none" id="Graphe-Occupant" style="stroke:#A80036;stroke-width:1.0;"/><polygon fill="#000000" points="574.5,38.5664,583.5451,41.5053,583.5451,35.6275,574.5,38.5664" style="stroke:#000000;stroke-width:1.0;"/><text fill="#000000" font-family="sans-serif" font-size="13" lengthAdjust="spacing" textLength="44" x="588.5" y="43.0669">est sur</text><!--MD5=[0dc0e9fef7777f0d6f6ebedf5bea88bd]
link Colony to Ant--><path codeLine="77" d="M586.68,244.4 C583.47,279.6 578.67,332.26 575.69,364.94 " fill="none" id="Colony-Ant" style="stroke:#A80036;stroke-width:1.0;"/><polygon fill="#000000" points="588.454,299.5871,584.7059,308.3279,590.5595,308.8616,588.454,299.5871" style="stroke:#000000;stroke-width:1.0;"/><text fill="#000000" font-family="sans-serif" font-size="13" lengthAdjust="spacing" textLength="107" x="597" y="309.0669">appartient à une</text><!--MD5=[13f47b10aa25078d4f2d5c73b4490dcf]
link Soldier to Queen--><path codeLine="78" d="M472.21,551.11 C470.52,560.36 468.83,571.14 468,581 C466.49,598.88 467.41,619.18 468.61,634.37 " fill="none" id="Soldier-Queen" style="stroke:#A80036;stroke-width:1.0;"/><polygon fill="#000000" points="473.216,584.5711,469.8891,593.4808,475.7614,593.7347,473.216,584.5711" style="stroke:#000000;stroke-width:1.0;"/><text fill="#000000" font-family="sans-serif" font-size="13" lengthAdjust="spacing" textLength="64" x="482" y="594.0669">donne vie</text><!--MD5=[8556188d988ececf7a364e30b90903be]
link Queen to Worker--><path codeLine="79" d="M506.61,658.5 C539.15,658.5 587.09,658.5 620.27,658.5 " fill="none" id="Queen-Worker" style="stroke:#A80036;stroke-width:1.0;"/><polygon fill="#000000" points="534,647.0664,524.9549,644.1275,524.9549,650.0053,534,647.0664" style="stroke:#000000;stroke-width:1.0;"/><text fill="#000000" font-family="sans-serif" font-size="13" lengthAdjust="spacing" textLength="64" x="538" y="651.5669">donne vie</text><!--MD5=[bca9d2185af3b1d357a8e50bbe8bc4ba]
link Worker to Food--><path codeLine="80" d="M695.55,658.5 C743.34,658.5 825,658.5 869.28,658.5 " fill="none" id="Worker-Food" style="stroke:#A80036;stroke-width:1.0;"/><polygon fill="#000000" points="723,647.0664,713.9549,644.1275,713.9549,650.0053,723,647.0664" style="stroke:#000000;stroke-width:1.0;"/><text fill="#000000" font-family="sans-serif" font-size="13" lengthAdjust="spacing" textLength="124" x="727" y="651.5669">ramasse et dépose</text><!--MD5=[9e8e2460ef27050344cb79cd82863737]
link Pheromone to Worker--><path codeLine="81" d="M801.75,335.21 C772.1,401.67 700.72,561.72 671.16,628 " fill="none" id="Pheromone-Worker" style="stroke:#A80036;stroke-width:1.0;"/><polygon fill="#000000" points="754.0367,460,747.6682,467.0635,753.0363,469.4578,754.0367,460" style="stroke:#000000;stroke-width:1.0;"/><text fill="#000000" font-family="sans-serif" font-size="13" lengthAdjust="spacing" textLength="47" x="761" y="469.0669">dépose</text><!--MD5=[0d1a06f2e567246264c6e5ad74c2db2b]
link GameController to Display--><path codeLine="82" d="M191.27,75.87 C169.01,87.35 145.44,102.96 129,123 C114.92,140.17 107.79,164.75 104.27,182.71 " fill="none" id="GameController-Display" style="stroke:#A80036;stroke-width:1.0;"/><polygon fill="#000000" points="130.8428,135.4436,138.8331,130.2855,134.2753,126.574,130.8428,135.4436" style="stroke:#000000;stroke-width:1.0;"/><text fill="#000000" font-family="sans-serif" font-size="13" lengthAdjust="spacing" textLength="98" x="143" y="136.0669">affiche la grille</text><!--MD5=[4cf3492bdabc46bbae509c1b72fa0583]
link GameController to Sauvegarde--><path codeLine="83" d="M251.61,93.1 C251.02,107.92 250.65,124.7 251,140 C251.32,154.22 252.04,170.15 252.69,182.8 " fill="none" id="GameController-Sauvegarde" style="stroke:#A80036;stroke-width:1.0;"/><polygon fill="#000000" points="256.0602,136.566,258.89,127.4862,253.0126,127.557,256.0602,136.566" style="stroke:#000000;stroke-width:1.0;"/><text fill="#000000" font-family="sans-serif" font-size="13" lengthAdjust="spacing" textLength="185" x="265" y="136.0669">enregistre les déplacements</text><!--MD5=[8a3e5a9b3b0c9ce6478a0ac1591c15df]
@startuml
'https://plantuml.com/class-diagram

abstract class Ant extends Occupant
{
    colony
}

class Colony extends Occupant
{
    pheromoneDeposit
    foodWithdrawal
}

class Display
{

}

class Food extends Occupant
{
    quantity
}

class GameController
{
    graphe
    rdm
    evaporationParam
}

class Graphe
{
    tabGrid
    listAnts
    listPheromones
}

class Main
{
}

class Obstacle extends Occupant
{
}

class Occupant
{
    x
    y
}

class Pheromone extends Occupant
{
    quantity
}

class Queen extends Ant
{
}

class Sauvegarde
{
}

class Soldier extends Ant
{
}

class Worker extends Ant
{
    carried
}

Main - GameController : lance le jeu >
GameController - Graphe : utilise >
Graphe - Occupant : est sur <
Ant -up- Colony : appartient à une >
Queen -up- Soldier : donne vie >
Queen - Worker : donne vie >
Worker - Food : ramasse et dépose >
Worker -up- Pheromone : dépose >
GameController - - Display : affiche la grille >
GameController - - Sauvegarde : enregistre les déplacements >


@enduml

@startuml

abstract class Ant extends Occupant
{
    colony
}

class Colony extends Occupant
{
    pheromoneDeposit
    foodWithdrawal
}

class Display
{

}

class Food extends Occupant
{
    quantity
}

class GameController
{
    graphe
    rdm
    evaporationParam
}

class Graphe
{
    tabGrid
    listAnts
    listPheromones
}

class Main
{
}

class Obstacle extends Occupant
{
}

class Occupant
{
    x
    y
}

class Pheromone extends Occupant
{
    quantity
}

class Queen extends Ant
{
}

class Sauvegarde
{
}

class Soldier extends Ant
{
}

class Worker extends Ant
{
    carried
}

Main - GameController : lance le jeu >
GameController - Graphe : utilise >
Graphe - Occupant : est sur <
Ant -up- Colony : appartient à une >
Queen -up- Soldier : donne vie >
Queen - Worker : donne vie >
Worker - Food : ramasse et dépose >
Worker -up- Pheromone : dépose >
GameController - - Display : affiche la grille >
GameController - - Sauvegarde : enregistre les déplacements >


@enduml

PlantUML version 1.2021.5(Sun Apr 25 13:20:28 CEST 2021)
(GPL source distribution)
Java Runtime: OpenJDK Runtime Environment
JVM: OpenJDK 64-Bit Server VM
Default Encoding: UTF-8
Language: fr
Country: FR
--></g></svg>